<svg width="32" height="32" viewBox="0 0 200 200" fill="none" xmlns="http://www.w3.org/2000/svg">
  <g clip-path="url(#clip0)">
    <path d="M156 0H6.50001C-147 0 1.52588e-05 19.6995 1.52588e-05 44V156C1.52588e-05 180.301 19.6995 200 44 200H156C233.5 200 200 206.5 200 156V44C200 19.6995 180.301 0 156 0Z" fill="#0F172A"/>
    <path d="M23 166.5C138 150 141.5 106 158 51.5" stroke="#8B9A82" stroke-width="3" stroke-linecap="round" stroke-dasharray="8 6"/>
    <path opacity="0.4" d="M31 162C35.4183 162 39 158.418 39 154C39 149.582 35.4183 146 31 146C26.5817 146 23 149.582 23 154C23 158.418 26.5817 162 31 162Z" fill="#BAE6FD"/>
    <path opacity="0.5" d="M62 152C68.6274 152 74 146.627 74 140C74 133.373 68.6274 128 62 128C55.3726 128 50 133.373 50 140C50 146.627 55.3726 152 62 152Z" fill="#BAE6FD"/>
    <path opacity="0.65" d="M99.5 131C111.374 131 121 121.374 121 109.5C121 97.6259 111.374 88 99.5 88C87.6259 88 78 97.6259 78 109.5C78 121.374 87.6259 131 99.5 131Z" fill="#BAE6FD"/>
    <path opacity="0.9" d="M148 92C167.882 92 184 75.8823 184 56C184 36.1177 167.882 20 148 20C128.118 20 112 36.1177 112 56C112 75.8823 128.118 92 148 92Z" fill="#0F172A"/>
    <path opacity="0.9" d="M148 92C167.882 92 184 75.8823 184 56C184 36.1177 167.882 20 148 20C128.118 20 112 36.1177 112 56C112 75.8823 128.118 92 148 92Z" fill="#BAE6FD"/>
    <path d="M165.979 43.0114L164.24 48.9432H131.104L132.843 43.0114H165.979ZM150.434 83L131.718 60.0909L131.615 55.7955H140.922C143.343 55.7955 145.405 55.4545 147.11 54.7727C148.814 54.0739 150.118 53.0341 151.022 51.6534C151.925 50.2557 152.377 48.5 152.377 46.3864C152.377 43.267 151.439 40.821 149.564 39.0483C147.689 37.2585 144.809 36.3636 140.922 36.3636H131.104L132.843 30.6364H140.922C145.081 30.6364 148.49 31.3267 151.15 32.7074C153.826 34.071 155.803 35.946 157.081 38.3324C158.377 40.7017 159.025 43.3864 159.025 46.3864C159.025 49.0966 158.428 51.5937 157.235 53.8778C156.059 56.1449 154.167 57.9687 151.559 59.3494C148.968 60.7301 145.542 61.4205 141.28 61.4205H141.127L158.411 82.5909V83H150.434ZM165.979 30.6364L164.24 36.5682L138.161 36.3636L139.9 30.6364H165.979Z" fill="#0F172A"/>
  </g>
  <defs>
    <clipPath id="clip0">
      <rect width="200" height="200" fill="white"/>
    </clipPath>
  </defs>
</svg>
